<svg width="40" height="28" viewBox="0 0 40 28" fill="none" xmlns="http://www.w3.org/2000/svg">
<path fill-rule="evenodd" clip-rule="evenodd" d="M9.62035 0.129883C12.7865 0.129883 15.5948 1.6597 17.348 4.02018C18.4725 5.53428 19.1605 7.39029 19.2407 9.40362V9.75023C19.2407 11.712 18.6588 13.5403 17.6504 15.061L9.61229 27.3254L9.39572 27.6559C9.30812 27.7895 9.15927 27.8699 8.99953 27.8699H2.45076C2.13545 27.8699 1.94629 27.5198 2.11906 27.2561L7.45037 19.1218C3.18282 18.1374 0 14.3167 0 9.75023L0.00886693 9.40362C0.0799367 7.39553 0.764974 5.54395 1.88436 4.03214C3.63692 1.66494 6.44894 0.129883 9.62035 0.129883ZM9.62032 12.9293C10.7725 12.9293 11.792 12.3731 12.4341 11.5175L12.7027 11.1077C12.9808 10.604 13.1398 10.0257 13.1396 9.40351C13.1362 7.46272 11.562 5.89032 9.62032 5.89032C7.6786 5.89032 6.10458 7.46272 6.10082 9.40969C6.10082 11.3536 7.67658 12.9293 9.62032 12.9293ZM38.1072 4.02018C36.3541 1.6597 33.5458 0.129883 30.3796 0.129883C27.2082 0.129883 24.3961 1.66494 22.6436 4.03214C21.5243 5.54395 20.8392 7.39553 20.768 9.40362L20.7593 9.75023C20.7593 14.3167 23.9421 18.1374 28.2097 19.1218L22.8783 27.2561C22.7056 27.5198 22.8947 27.8699 23.2099 27.8699H29.7588C29.9184 27.8699 30.0673 27.7895 30.1549 27.6559L30.3714 27.3254L38.4096 15.061C39.4181 13.5403 40 11.712 40 9.75023V9.40362C39.9198 7.39029 39.2317 5.53428 38.1072 4.02018ZM30.3796 12.9293C31.5318 12.9293 32.5514 12.3731 33.1934 11.5175L33.462 11.1077C33.7399 10.604 33.8991 10.0257 33.8989 9.40351C33.8955 7.46272 32.3214 5.89032 30.3796 5.89032C28.4379 5.89032 26.8639 7.46272 26.86 9.40969C26.86 11.3536 28.4359 12.9293 30.3796 12.9293Z" fill="white"/>
</svg>
