<svg width="16" height="19" viewBox="0 0 16 19" fill="none" xmlns="http://www.w3.org/2000/svg">
<path fill-rule="evenodd" clip-rule="evenodd" d="M11.932 0.0790699C11.9299 0.0530647 11.9278 0.0267815 11.926 0C11.9 0.00186994 11.8792 0.00286306 11.8595 0.00380165L11.8556 0.00398791C11.4806 0.0329002 11.1205 0.12861 10.7724 0.268187C10.1067 0.53438 9.51652 0.911237 9.04533 1.46057C8.43229 2.17441 8.03748 2.98595 7.96904 3.93906C7.95614 4.1215 7.9611 4.30395 7.9859 4.48839C7.99191 4.48915 7.99763 4.49004 8.00323 4.49092C8.01242 4.49236 8.02129 4.49375 8.03054 4.49437C8.28052 4.50733 8.52851 4.49238 8.77452 4.44054C9.18817 4.3528 9.56612 4.17933 9.91628 3.94304C10.3974 3.61803 10.8001 3.21126 11.1414 2.74169C11.687 1.99096 11.9776 1.15749 11.9409 0.220332C11.9396 0.173277 11.9358 0.126639 11.932 0.0790699ZM15.3244 6.46449C15.3549 6.4443 15.3856 6.42403 15.4163 6.40353L15.3995 6.37761C14.8598 5.61691 14.1436 5.09649 13.2667 4.79541C12.8928 4.66779 12.5089 4.58704 12.1181 4.53819C11.8572 4.50628 11.5943 4.48834 11.3314 4.50828C10.8424 4.54517 10.3702 4.66181 9.90696 4.81734C9.67127 4.89695 9.43582 4.97797 9.20026 5.05903C8.952 5.14446 8.70362 5.22994 8.45472 5.31383C8.27022 5.37664 8.08472 5.41353 7.88632 5.36468C7.55919 5.28418 7.24237 5.17349 6.92584 5.06289L6.89932 5.05362C6.87756 5.046 6.8558 5.03838 6.83404 5.03075C6.52844 4.92365 6.22266 4.8165 5.9143 4.72063C5.62563 4.63091 5.32904 4.57208 5.02549 4.55414C4.7537 4.53719 4.48487 4.56311 4.21605 4.60399C3.45124 4.72063 2.76183 5.02072 2.13986 5.47833C1.50302 5.94691 1.0239 6.54809 0.662827 7.24896C0.268024 8.01464 0.0775668 8.83515 0.0190408 9.69056C-0.017662 10.2279 0.000193436 10.7633 0.0597114 11.2977C0.118237 11.8261 0.22041 12.3465 0.355317 12.8609C0.8513 14.7462 1.75796 16.4092 3.05247 17.8588C3.37288 18.2177 3.728 18.5387 4.15752 18.764C4.54935 18.9694 4.96201 19.0432 5.40046 18.9754C5.75161 18.9206 6.08888 18.8169 6.41921 18.6893C6.44207 18.6804 6.46492 18.6716 6.48778 18.6627C6.80016 18.5417 7.11279 18.4206 7.44093 18.3453C7.86847 18.2466 8.29898 18.2047 8.73545 18.2556C9.16199 18.3054 9.57068 18.4201 9.96747 18.5816C10.3603 18.7411 10.7591 18.8797 11.1787 18.9475C11.6399 19.0223 12.0794 18.9575 12.5019 18.761C12.8521 18.5985 13.1477 18.3603 13.4195 18.0911C13.73 17.784 13.9939 17.4371 14.2577 17.0891C14.9491 16.1769 15.4917 15.1859 15.8657 14.1022C15.8855 14.0444 15.9054 13.9875 15.9262 13.9287C15.9182 13.9252 15.9121 13.9221 15.9067 13.9193C15.9028 13.9173 15.8992 13.9154 15.8955 13.9138C15.4233 13.7104 15.0037 13.4262 14.6277 13.0743C14.097 12.5788 13.7052 11.9956 13.4939 11.2967C13.2965 10.6427 13.2608 9.97569 13.36 9.30074C13.4324 8.80923 13.5951 8.34963 13.85 7.92292C14.1675 7.39452 14.593 6.97081 15.0939 6.61987C15.1695 6.56688 15.2465 6.51595 15.3244 6.46449Z" fill="#FF7B1C"/>
</svg>
