<svg width="72" height="72" viewBox="0 0 72 72" fill="none" xmlns="http://www.w3.org/2000/svg">
<circle cx="36" cy="36" r="31.5" fill="#FF8200"/>
<path d="M49.1129 35.0012C49.2311 35.1308 49.3221 35.276 49.3862 35.4298C49.4549 35.5944 49.4948 35.774 49.4995 35.9622C49.4998 35.9748 49.5 35.9874 49.5 36C49.5 36.2024 49.4594 36.3953 49.3858 36.5712C49.3126 36.7465 49.2042 36.9108 49.0607 37.0534L36.9673 49.0637C36.3815 49.6454 35.4317 49.6454 34.846 49.0637C34.2602 48.4819 34.2602 47.5387 34.846 46.9569L44.3787 37.4897H24C23.1716 37.4897 22.5 36.8227 22.5 36C22.5 35.1773 23.1716 34.5103 24 34.5103H44.3787L34.846 25.0431C34.2602 24.4613 34.2602 23.5181 34.846 22.9363C35.4317 22.3546 36.3815 22.3546 36.9673 22.9363L49.0607 34.9466C49.0786 34.9645 49.0961 34.9827 49.1129 35.0012Z" fill="white"/>
</svg>
