<svg width="15" height="15" viewBox="0 0 64 64" fill="none" xmlns="http://www.w3.org/2000/svg">
<path d="M35.41 29.04C36.72 27.87 37.63 27.03 38.14 26.54C38.65 26.04 39.08 25.45 39.45 24.77C39.82 24.09 40 23.29 40 22.39C40 21.24 39.68 20.17 39.03 19.19C38.38 18.21 37.47 17.43 36.29 16.86C35.11 16.29 33.74 16 32.19 16C30.53 16 29.07 16.34 27.82 17.02C26.57 17.7 25.62 18.56 24.97 19.6C24.32 20.64 23.99 21.67 23.99 22.68C23.99 23.17 24.2 23.63 24.61 24.05C25.02 24.47 25.52 24.68 26.12 24.68C27.13 24.68 27.82 24.08 28.18 22.87C28.56 21.72 29.03 20.85 29.59 20.25C30.15 19.65 31.01 19.36 32.18 19.36C33.18 19.36 34 19.65 34.64 20.24C35.27 20.83 35.59 21.55 35.59 22.4C35.59 22.84 35.49 23.24 35.28 23.62C35.07 23.99 34.82 24.33 34.51 24.64C34.21 24.94 33.71 25.39 33.03 25.99C32.25 26.67 31.63 27.26 31.17 27.76C30.71 28.26 30.34 28.83 30.07 29.49C29.79 30.15 29.65 30.92 29.65 31.82C29.65 32.53 29.84 33.07 30.22 33.44C30.6 33.8 31.07 33.98 31.62 33.98C32.69 33.98 33.32 33.43 33.52 32.32C33.64 31.8 33.73 31.43 33.78 31.22C33.84 31.01 33.92 30.8 34.03 30.6C34.14 30.4 34.3 30.16 34.52 29.91C34.74 29.66 35.03 29.37 35.39 29.04H35.41Z" fill="white"/>
<path d="M31.8099 36.3501C31.1299 36.3501 30.5499 36.5801 30.0799 37.0401C29.6099 37.5001 29.3799 38.0601 29.3799 38.7401C29.3799 39.5001 29.6199 40.0901 30.1099 40.5101C30.5999 40.9301 31.1599 41.1401 31.8099 41.1401C32.4599 41.1401 32.9899 40.9301 33.4699 40.5001C33.9499 40.0701 34.1899 39.4901 34.1899 38.7401C34.1899 38.0701 33.9599 37.5001 33.4999 37.0401C33.0399 36.5801 32.4799 36.3501 31.7999 36.3501H31.8099Z" fill="white"/>
<path d="M56.51 51C56.11 51 55.72 51.05 55.34 51.13C53.34 48.25 51.57 46.56 50.31 45.6C48.96 44.57 47.27 44 45.55 44H13.47C9.36 44 6.02002 40.66 6.02002 36.55V19.46C6.02002 15.35 9.36 12.01 13.47 12.01H49.56C53.67 12.01 57.01 15.35 57.01 19.46V42.55C57.01 43.65 57.91 44.55 59.01 44.55C60.11 44.55 61.01 43.65 61.01 42.55V19.46C61.01 13.14 55.87 8.01001 49.56 8.01001H13.47C7.15 8.01001 2.02002 13.15 2.02002 19.46V36.55C2.02002 42.87 7.16 48 13.47 48H45.55C46.41 48 47.22 48.27 47.88 48.78C48.9 49.56 50.33 50.94 52.01 53.34C51.38 54.23 51.01 55.32 51.01 56.5C51.01 59.54 53.47 62 56.51 62C59.55 62 62.01 59.54 62.01 56.5C62.01 53.46 59.55 51 56.51 51Z" fill="white"/>
</svg>
