<svg width="40" height="40" viewBox="0 0 40 40" fill="none" xmlns="http://www.w3.org/2000/svg">
<rect width="40" height="40" rx="20" fill="#E5E5E5"/>
<path d="M25.94 15.4786L21.8194 19.5997L25.94 23.7206C26.553 24.3337 26.553 25.3269 25.94 25.9401C25.6338 26.2463 25.2323 26.3996 24.831 26.3996C24.429 26.3996 24.0274 26.2466 23.7214 25.9401L19.5999 21.8188L15.4787 25.9401C15.1725 26.2463 14.7709 26.3995 14.3693 26.3995C13.9677 26.3995 13.5665 26.2465 13.26 25.9401C12.6471 25.3272 12.6471 24.3339 13.26 23.7205L17.3805 19.5997L13.2597 15.4786C12.6468 14.8657 12.6468 13.8723 13.2597 13.2593C13.8725 12.6469 14.8654 12.6469 15.4785 13.2593L19.5999 17.3804L23.721 13.2593C24.3341 12.6469 25.3271 12.6469 25.9398 13.2593C26.553 13.8723 26.553 14.8657 25.94 15.4786Z" fill="#212121"/>
</svg>
