<svg width="29" height="27" viewBox="0 0 29 27" fill="none" xmlns="http://www.w3.org/2000/svg">
<path d="M26.3392 21.4364C26.1459 21.4364 25.9574 21.4606 25.7737 21.4993C24.8071 20.1073 23.9516 19.2904 23.3426 18.8264C22.6901 18.3286 21.8732 18.0531 21.0419 18.0531H5.53659C3.55009 18.0531 1.93577 16.4388 1.93577 14.4523V6.19212C1.93577 4.20562 3.55009 2.59129 5.53659 2.59129H22.9801C24.9666 2.59129 26.5809 4.20562 26.5809 6.19212V17.3523C26.5809 17.8839 27.0159 18.3189 27.5476 18.3189C28.0792 18.3189 28.5142 17.8839 28.5142 17.3523V6.19212C28.5142 3.13746 26.0299 0.657959 22.9801 0.657959H5.53659C2.48193 0.657959 0.00244141 3.14229 0.00244141 6.19212V14.4523C0.00244141 17.5069 2.48676 19.9864 5.53659 19.9864H21.0419C21.4576 19.9864 21.8491 20.1169 22.1681 20.3634C22.6611 20.7404 23.3522 21.4074 24.1642 22.5674C23.8597 22.9976 23.6809 23.5244 23.6809 24.0948C23.6809 25.5641 24.8699 26.7531 26.3392 26.7531C27.8086 26.7531 28.9976 25.5641 28.9976 24.0948C28.9976 22.6254 27.8086 21.4364 26.3392 21.4364Z" fill="white"/>
<path d="M21.9895 12.3694H6.52282C5.99115 12.3694 5.55615 12.8044 5.55615 13.336C5.55615 13.8677 5.99115 14.3027 6.52282 14.3027H21.9895C22.5211 14.3027 22.9561 13.8677 22.9561 13.336C22.9561 12.8044 22.5211 12.3694 21.9895 12.3694Z" fill="white"/>
<path d="M21.9895 6.56934H6.52282C5.99115 6.56934 5.55615 7.00434 5.55615 7.536C5.55615 8.06767 5.99115 8.50267 6.52282 8.50267H21.9895C22.5211 8.50267 22.9561 8.06767 22.9561 7.536C22.9561 7.00434 22.5211 6.56934 21.9895 6.56934Z" fill="white"/>
</svg>
