<svg width="26" height="23" viewBox="0 0 26 23" fill="none" xmlns="http://www.w3.org/2000/svg">
<path d="M13 0.350098C8.814 0.350098 3.38086 1.39893 3.38086 1.39893L3.36719 1.41455C1.46066 1.71946 0 3.35772 0 5.3501V11.3501V11.3521V17.3501V17.3521C0.00186045 18.3036 0.34287 19.2233 0.961798 19.946C1.58073 20.6688 2.43703 21.1472 3.37695 21.2954L3.38086 21.3013C3.38086 21.3013 8.814 22.3521 13 22.3521C17.186 22.3521 22.6191 21.3013 22.6191 21.3013L22.6211 21.2993C23.562 21.1514 24.4193 20.6726 25.0387 19.949C25.6581 19.2254 25.999 18.3045 26 17.3521V17.3501V11.3521V11.3501V5.3501C25.9986 4.39823 25.6578 3.47805 25.0388 2.75491C24.4199 2.03176 23.5633 1.55305 22.623 1.40479L22.6191 1.39893C22.6191 1.39893 17.186 0.350098 13 0.350098ZM10 6.74854L18 11.3501L10 15.9517V6.74854Z" fill="#FF7B1C"/>
</svg>
