<svg width="68" height="68" viewBox="0 0 68 68" fill="none" xmlns="http://www.w3.org/2000/svg">
<path fill-rule="evenodd" clip-rule="evenodd" d="M23.7634 20.198C26.9214 20.198 29.7224 21.7239 31.4711 24.0782C32.5927 25.5884 33.2789 27.4396 33.3589 29.4478V29.7935C33.3589 31.7501 32.7786 33.5737 31.7728 35.0905L23.5394 47.6529C23.452 47.7861 23.3036 47.8663 23.1442 47.8663H16.6124C16.2979 47.8663 16.1092 47.5171 16.2816 47.2541L21.5991 39.1408C17.3426 38.159 14.168 34.3481 14.168 29.7935L14.1768 29.4478C14.2477 27.4449 14.931 25.5981 16.0475 24.0902C17.7955 21.7291 20.6002 20.198 23.7634 20.198ZM23.7634 32.9644C24.9126 32.9644 25.9295 32.4097 26.5699 31.5562L26.8378 31.1475C27.1152 30.6452 27.2738 30.0683 27.2736 29.4477C27.2702 27.512 25.7001 25.9436 23.7634 25.9436C21.8267 25.9436 20.2568 27.512 20.253 29.4539C20.253 31.3928 21.8247 32.9644 23.7634 32.9644Z" fill="#212121"/>
<path fill-rule="evenodd" clip-rule="evenodd" d="M52.1766 24.0782C50.4281 21.7239 47.6271 20.198 44.4691 20.198C41.3059 20.198 38.501 21.7291 36.7531 24.0902C35.6366 25.5981 34.9533 27.4449 34.8823 29.4478L34.8736 29.7935C34.8736 34.3481 38.0482 38.159 42.3047 39.1408L36.9872 47.2541C36.8148 47.5171 37.0035 47.8663 37.3179 47.8663H43.8499C44.009 47.8663 44.1575 47.7861 44.2449 47.6529L52.4783 35.0905C53.4842 33.5737 54.0646 31.7501 54.0646 29.7935V29.4478C53.9846 27.4396 53.2982 25.5884 52.1766 24.0782ZM44.4691 32.9644C45.6182 32.9644 46.6352 32.4097 47.2755 31.5562L47.5434 31.1475C47.8207 30.6452 47.9794 30.0683 47.9792 29.4477C47.9758 27.512 46.4058 25.9436 44.4691 25.9436C42.5324 25.9436 40.9624 27.512 40.9585 29.4539C40.9585 31.3928 42.5303 32.9644 44.4691 32.9644Z" fill="#212121"/>
</svg>
