<svg width="16" height="16" viewBox="0 0 16 16" fill="none" xmlns="http://www.w3.org/2000/svg">
<g clip-path="url(#clip0_536_1577)">
<path d="M13.6568 0.928985L0.928909 13.6569C0.538384 14.0474 0.538384 14.6806 0.928909 15.0711C1.31943 15.4616 1.9526 15.4616 2.34312 15.0711L15.071 2.3432C15.4616 1.95267 15.4616 1.31951 15.071 0.928985C14.6805 0.538461 14.0474 0.538461 13.6568 0.928985Z" fill="#1A1B1A"/>
<path d="M15.071 13.657L2.34309 0.929031C1.95257 0.538506 1.3194 0.538506 0.92888 0.929031C0.538355 1.31955 0.538355 1.95272 0.92888 2.34324L13.6568 15.0712C14.0473 15.4617 14.6805 15.4617 15.071 15.0712C15.4615 14.6806 15.4615 14.0475 15.071 13.657Z" fill="#1A1B1A"/>
</g>
<defs>
<clipPath id="clip0_536_1577">
<rect width="16" height="16" fill="white"/>
</clipPath>
</defs>
</svg>
