<svg width="24" height="25" viewBox="0 0 24 25" fill="none" xmlns="http://www.w3.org/2000/svg">
<path d="M6.99805 0.350098C3.13905 0.350098 0 3.49205 0 7.35205V17.3521C0 21.2111 3.14195 24.3501 7.00195 24.3501H17.002C20.861 24.3501 24 21.2081 24 17.3481V7.34814C24 3.48914 20.858 0.350098 16.998 0.350098H6.99805ZM19 4.3501C19.552 4.3501 20 4.7981 20 5.3501C20 5.9021 19.552 6.3501 19 6.3501C18.448 6.3501 18 5.9021 18 5.3501C18 4.7981 18.448 4.3501 19 4.3501ZM12 6.3501C15.309 6.3501 18 9.0411 18 12.3501C18 15.6591 15.309 18.3501 12 18.3501C8.691 18.3501 6 15.6591 6 12.3501C6 9.0411 8.691 6.3501 12 6.3501ZM12 8.3501C10.9391 8.3501 9.92172 8.77152 9.17157 9.52167C8.42143 10.2718 8 11.2892 8 12.3501C8 13.411 8.42143 14.4284 9.17157 15.1785C9.92172 15.9287 10.9391 16.3501 12 16.3501C13.0609 16.3501 14.0783 15.9287 14.8284 15.1785C15.5786 14.4284 16 13.411 16 12.3501C16 11.2892 15.5786 10.2718 14.8284 9.52167C14.0783 8.77152 13.0609 8.3501 12 8.3501Z" fill="#FF7B1C"/>
</svg>
