<svg width="24" height="25" viewBox="0 0 24 25" fill="none" xmlns="http://www.w3.org/2000/svg">
<path d="M12 0.350098C5.373 0.350098 0 5.7231 0 12.3501C0 18.9771 5.373 24.3501 12 24.3501C18.627 24.3501 24 18.9771 24 12.3501C24 5.7231 18.627 0.350098 12 0.350098ZM7.496 5.7531C8.338 5.7531 8.899 6.3141 8.899 7.0621C8.899 7.8101 8.338 8.3711 7.403 8.3711C6.561 8.3721 6 7.8101 6 7.0621C6 6.3141 6.561 5.7531 7.496 5.7531ZM9 17.3501H6V9.3501H9V17.3501ZM19 17.3501H16.176V12.9781C16.176 11.7691 15.423 11.4901 15.141 11.4901C14.859 11.4901 13.917 11.6761 13.917 12.9781C13.917 13.1641 13.917 17.3501 13.917 17.3501H11V9.3501H13.918V10.4661C14.294 9.8151 15.047 9.3501 16.459 9.3501C17.871 9.3501 19 10.4661 19 12.9781V17.3501Z" fill="#FF7B1C"/>
</svg>
