<svg width="26" height="22" viewBox="0 0 26 22" fill="none" xmlns="http://www.w3.org/2000/svg">
<path d="M26 3.28713C25.043 3.71213 24.015 3.99813 22.936 4.12713C24.038 3.46713 24.883 2.42213 25.281 1.17613C24.251 1.78713 23.109 2.23113 21.893 2.47113C20.92 1.43413 19.534 0.786133 18 0.786133C15.054 0.786133 12.666 3.17513 12.666 6.12013C12.666 6.53813 12.714 6.94613 12.804 7.33513C8.37099 7.11313 4.44099 4.98913 1.80899 1.76113C1.35099 2.54913 1.08799 3.46513 1.08799 4.44413C1.08799 6.29413 2.02899 7.92713 3.45999 8.88313C2.58599 8.85513 1.76299 8.61513 1.04399 8.21613C1.04399 8.23913 1.04399 8.26013 1.04399 8.28313C1.04399 10.8681 2.88199 13.0241 5.32299 13.5131C4.87599 13.6351 4.40399 13.7001 3.91699 13.7001C3.57399 13.7001 3.23899 13.6661 2.91399 13.6051C3.59299 15.7241 5.56299 17.2671 7.89699 17.3101C6.07199 18.7411 3.77199 19.5941 1.27199 19.5941C0.841993 19.5941 0.416993 19.5691 -0.00100708 19.5191C2.35999 21.0321 5.16299 21.9151 8.17599 21.9151C17.988 21.9151 23.352 13.7871 23.352 6.73813C23.352 6.50713 23.347 6.27713 23.337 6.04813C24.38 5.29513 25.285 4.35613 26 3.28713Z" fill="#FF7B1C"/>
</svg>
